<svg id="Layer_1" data-name="Layer 1" xmlns="http://www.w3.org/2000/svg" viewBox="0 0 35.75 77.52"><defs><style>.cls-1{fill:#08b1be;}</style></defs><title>logo</title><path class="cls-1" d="M417.52,270.11a6.9,6.9,0,1,1-7,6.9A6.7,6.7,0,0,1,417.52,270.11Zm0,2.52c-2.46,0-4,1.88-4,4.38s1.58,4.38,4,4.38A4.39,4.39,0,0,0,417.52,272.63Z" transform="translate(-402.98 -258.84)"/><path class="cls-1" d="M433,270.11a6.24,6.24,0,0,1,5.52,3l-2.36,1.28a3.78,3.78,0,0,0-3.16-1.74,4.39,4.39,0,0,0,0,8.76,4.5,4.5,0,0,0,2.84-1v-1.6h-3.52v-2.48h6.36v5.12a7.41,7.41,0,0,1-5.68,2.52A6.91,6.91,0,1,1,433,270.11Z" transform="translate(-402.98 -258.84)"/><path class="cls-1" d="M410.38,291.33h2.84v10.84h5.64v2.5h-8.48V291.33Z" transform="translate(-402.98 -258.84)"/><path class="cls-1" d="M420.84,291.33h2.84v13.34h-2.84V291.33Z" transform="translate(-402.98 -258.84)"/><path class="cls-1" d="M429.16,296v8.7h-2.84V291.33h2.92l6.18,8.38v-8.38h2.84v13.34h-2.74Z" transform="translate(-402.98 -258.84)"/><path class="cls-1" d="M414.88,312.33h5.26c4.18,0,7.08,2.66,7.08,6.68s-2.9,6.66-7.08,6.66h-5.26V312.33Zm5.26,10.84a4,4,0,0,0,4.18-4.16,3.91,3.91,0,0,0-4.18-4.18h-2.42v8.34h2.42Z" transform="translate(-402.98 -258.84)"/><path class="cls-1" d="M429.24,312.33h9.44v2.5h-6.6v2.82h6.46v2.5h-6.46v3h6.6v2.5h-9.44V312.33Z" transform="translate(-402.98 -258.84)"/><rect class="cls-1" x="0.21" width="35.29" height="3"/><rect class="cls-1" y="74.52" width="35.75" height="3"/></svg>